<?xml version="1.0" standalone="no"?>
<!DOCTYPE svg PUBLIC "-//W3C//DTD SVG 20010904//EN"
 "http://www.w3.org/TR/2001/REC-SVG-20010904/DTD/svg10.dtd">
<svg version="1.0" xmlns="http://www.w3.org/2000/svg"
 width="700.000000pt" height="700.000000pt" viewBox="0 0 700.000000 700.000000"
 preserveAspectRatio="xMidYMid meet">
<metadata>
Created by potrace 1.14, written by Peter Selinger 2001-2017
</metadata>
<g transform="translate(0.000000,700.000000) scale(0.100000,-0.100000)"
fill="#000000" stroke="none">
<path d="M1778 6575 c-2 -1 -32 -5 -68 -8 -193 -17 -427 -95 -600 -200 -148
-89 -347 -275 -433 -405 -173 -259 -250 -514 -248 -817 0 -87 11 -193 25 -260
27 -125 59 -220 114 -335 38 -81 136 -233 186 -289 32 -36 45 -50 396 -411
114 -118 237 -245 272 -282 l63 -68 141 139 c77 77 146 146 153 154 10 13 -39
67 -332 361 -263 263 -358 365 -401 429 -104 156 -155 316 -161 507 -12 340
127 631 394 830 91 67 275 148 376 166 11 2 34 6 50 9 17 4 77 9 135 11 216 8
434 -58 596 -180 81 -60 3433 -3414 3493 -3494 246 -328 248 -797 6 -1137 -76
-107 -192 -213 -304 -278 -61 -36 -192 -93 -231 -101 -115 -23 -157 -28 -240
-30 -87 -2 -116 0 -220 18 -105 19 -259 85 -359 156 -65 46 -1780 1756 -1820
1815 -63 92 -94 199 -93 315 1 68 3 78 22 150 29 108 103 211 199 274 103 69
164 88 301 92 101 3 124 0 189 -21 40 -14 103 -45 140 -70 43 -28 225 -203
516 -495 l450 -450 152 152 153 153 -462 463 c-255 255 -490 485 -523 511
-110 88 -248 154 -400 191 -77 19 -268 21 -363 4 -313 -55 -582 -258 -712
-539 -18 -38 -36 -77 -40 -86 -4 -8 -18 -55 -31 -105 -19 -75 -23 -113 -22
-239 0 -172 23 -282 87 -419 77 -168 85 -177 980 -1074 468 -470 892 -888 942
-930 213 -179 478 -292 744 -319 361 -37 719 61 1010 275 315 232 523 591 565
977 7 59 7 281 1 304 -3 9 -7 41 -11 72 -20 194 -132 457 -278 655 -54 74
-3452 3481 -3540 3549 -172 135 -334 216 -525 265 -76 19 -93 22 -182 35 -46
7 -247 14 -252 10z"/>
</g>
</svg>
